<?xml version="1.0" encoding="UTF-8" standalone="no"?>
<!-- Created with Inkscape (http://www.inkscape.org/) -->

<svg
   xmlns:dc="http://purl.org/dc/elements/1.1/"
   xmlns:cc="http://creativecommons.org/ns#"
   xmlns:rdf="http://www.w3.org/1999/02/22-rdf-syntax-ns#"
   xmlns:svg="http://www.w3.org/2000/svg"
   xmlns="http://www.w3.org/2000/svg"
   xmlns:sodipodi="http://sodipodi.sourceforge.net/DTD/sodipodi-0.dtd"
   xmlns:inkscape="http://www.inkscape.org/namespaces/inkscape"
   version="1.1"
   id="svg4213"
   width="1726"
   height="747"
   viewBox="0 0 1726 747"
   sodipodi:docname="tecbeet_1080x1920.svg"
   inkscape:version="0.92.3 (5aff6ba, 2018-11-25)">
  <metadata
     id="metadata4219">
    <rdf:RDF>
      <cc:Work
         rdf:about="">
        <dc:format>image/svg+xml</dc:format>
        <dc:type
           rdf:resource="http://purl.org/dc/dcmitype/StillImage" />
        <dc:title></dc:title>
      </cc:Work>
    </rdf:RDF>
  </metadata>
  <defs
     id="defs4217" />
  <sodipodi:namedview
     pagecolor="#ffffff"
     bordercolor="#666666"
     borderopacity="1"
     objecttolerance="10"
     gridtolerance="10"
     guidetolerance="10"
     inkscape:pageopacity="0"
     inkscape:pageshadow="2"
     inkscape:window-width="1311"
     inkscape:window-height="713"
     id="namedview4215"
     showgrid="false"
     inkscape:zoom="0.14513326"
     inkscape:cx="1821.596"
     inkscape:cy="875.09"
     inkscape:window-x="55"
     inkscape:window-y="27"
     inkscape:window-maximized="1"
     inkscape:current-layer="svg4213" />
  <path
     style="fill:#000000"
     d="M 281.10449,685.77482 C 271.50025,660.51376 254.09243,640.01672 233.5,629.72237 220.47438,623.21073 215.53091,622.0554 190,619.55606 173.67243,617.95767 162.39788,614.76466 148,607.66143 116.64655,592.19313 85.134505,558.82972 69.453275,524.5 60.065232,503.94747 55.710763,490.47017 52.32916,471.5 49.856849,457.63079 49.879693,424.47914 52.370851,411 55.252608,395.40741 60.859157,376.71413 65.867397,366 80.168475,335.40571 105.17051,309.65861 134,295.83704 c 18.64956,-8.94107 27.24276,-11.6494 51,-16.07378 8.63417,-1.60797 46.40831,-1.63074 55.5,-0.0335 3.85,0.67639 13.3,2.35072 21,3.72073 16.24371,2.89015 30.48274,3.24953 43.94246,1.10909 4.98165,-0.79221 12.43254,-1.89745 16.55754,-2.45609 4.125,-0.55864 10.875,-1.718 15,-2.57636 13.63231,-2.8367 36.69336,-1.61961 57,3.00828 3.575,0.81474 7.22888,1.47757 8.11973,1.47295 3.35021,-0.0174 15.56396,4.47759 28.38027,10.44465 2.75,1.28035 5.8567,2.61463 6.90378,2.96506 6.02778,2.01734 23.13606,15.11835 34.38614,26.33189 L 484.07984,336 H 643.03992 802 V 350.5 365 H 744 686 V 409.5 454 H 743.5 801 V 468.5 483 H 743.5 686 V 539.5 596 H 743.5 801 V 610.5 625 H 730.5 660 V 495 365 H 627.50374 595.00749 L 594.75374,494.75 594.5,624.5 581.75,624.77988 569,625.05975 V 494.88106 364.70237 l -45.54574,0.53165 c -49.8736,0.58216 -46.30545,0.97889 -50.37183,-5.60065 -4.75678,-7.69663 -13.93477,-12.15985 -23.43659,-11.39714 -10.70307,0.85914 -19.08106,6.96558 -22.65227,16.51051 -2.35946,6.30621 -2.49687,10.26305 -0.57787,16.63942 6.30305,20.94342 35.25971,24.73478 47.00428,6.15437 l 2.90111,-4.58969 15.58619,0.27458 15.5862,0.27458 1.15981,3.54355 c 2.09292,6.39446 6.49482,28.90779 5.85468,29.94356 -0.82631,1.33699 -87.737,1.38119 -92.38913,0.047 -2.24376,-0.6435 -7.17199,-4.73241 -14.76453,-12.25 C 401.08619,398.57784 393.60474,392.15 390.72886,390.5 L 385.5,387.5 H 365 c -25.1259,0 -24.37724,-0.29974 -41.56625,16.64173 C 310.42912,416.95908 308.58722,418 298.91159,418 c -4.15676,0 -6.02849,-0.4717 -7.2566,-1.82874 C 290.74474,415.16545 290,413.99271 290,413.56516 c 0,-2.322 -6.78776,-8.80475 -11.79209,-11.2622 -4.57906,-2.24862 -6.99342,-2.78526 -12.20791,-2.71347 -7.73173,0.10645 -12.311,1.8898 -17.96198,6.99513 -6.47201,5.84707 -8.51134,10.52434 -8.46525,19.41538 0.0427,8.23065 1.27334,11.47727 6.68865,17.64496 8.98646,10.23501 26.48729,11.27658 37.72556,2.24526 2.18609,-1.75679 4.21348,-3.94645 4.5053,-4.86591 0.29183,-0.91946 1.44298,-2.65107 2.55811,-3.84802 C 292.88688,435.20505 294.07884,435 303.7011,435 c 9.62526,0 11.05416,-0.246 15.21104,-2.61877 2.52332,-1.44032 9.76286,-7.71776 16.08786,-13.94987 6.325,-6.2321 12.76679,-11.80366 14.3151,-12.38123 C 350.8634,405.47256 357.92161,405 365,405 c 7.07839,0 14.1366,0.47256 15.6849,1.05013 1.54831,0.57757 7.9901,6.15328 14.3151,12.39047 6.325,6.23718 13.64595,12.51043 16.26878,13.94054 l 4.76878,2.60021 49.73122,0.25933 L 515.5,435.5 l -0.20293,15.84082 c -0.13244,10.33922 -0.6091,16.33023 -1.37244,17.25 C 512.94242,469.77431 503.1785,470 452.95934,470 c -32.88767,0 -60.52674,-0.2805 -61.42015,-0.62333 -0.89341,-0.34284 -2.50413,-2.34779 -3.57938,-4.45545 -2.32268,-4.55282 -7.17075,-8.63351 -13.13105,-11.05258 -11.77493,-4.77903 -26.50756,0.69008 -32.57876,12.09403 -3.12659,5.87289 -3.2076,18.24808 -0.15552,23.75691 5.31095,9.58595 12.65923,13.81286 23.83839,13.71245 9.52739,-0.0856 14.71614,-2.7699 20.88782,-10.80606 L 391.14139,487 h 58.87029 c 32.37866,0 59.08617,0.34931 59.35003,0.77625 1.14957,1.86003 -6.58871,26.86886 -9.85741,31.85753 L 497.95389,522 l -43.22694,0.022 c -41.31253,0.021 -43.42624,0.11211 -47.72695,2.0575 -2.84897,1.28872 -8.91351,6.39549 -16.52936,13.9189 -6.61614,6.53585 -13.28294,12.35998 -14.8151,12.9425 -1.53215,0.58249 -6.35644,1.0591 -10.72064,1.0591 -8.72788,0 -8.9342,-0.1139 -14.22773,-7.85472 -3.49445,-5.10999 -13.33685,-10.14283 -19.85014,-10.15023 -10.29023,-0.0117 -20.80915,6.84751 -24.87001,16.21727 -6.01213,13.87198 0.14923,29.07476 14.53875,35.87348 3.39235,1.60281 7.79954,2.9142 9.79374,2.9142 7.73331,0 20.67364,-8.74081 23.67789,-15.99373 0.68488,-1.65345 1.52815,-3.01669 1.87392,-3.02944 0.34577,-0.0127 5.80368,-0.17101 12.12868,-0.35172 7.89648,-0.2256 12.73433,-0.85382 15.43916,-2.00484 2.34544,-0.99809 8.81875,-6.49908 16,-13.59673 6.896,-6.81572 13.65296,-12.58486 15.77872,-13.47199 3.11592,-1.30034 9.30901,-1.55155 38.25,-1.55155 39.88785,0 37.24304,-0.91915 30.39493,10.56314 -11.16963,18.72821 -34.0419,41.74349 -52.51926,52.84764 -18.79677,11.2961 -33.40392,16.22299 -52.34355,17.65511 -13.33558,1.00837 -25.55657,3.02738 -28.68426,4.73887 -1.20134,0.65738 -2.92872,1.19524 -3.83862,1.19524 -3.59728,0 -20.55934,9.21597 -29.02612,15.77071 -12.37513,9.58048 -24.84832,26.05368 -29.88547,39.46939 -2.53794,6.75944 -4.96702,8.4643 -6.46104,4.53472 z M 927.5,631.4235 c -14.20953,-1.98326 -19.23721,-3.01506 -27.5,-5.64367 -40.22503,-12.79663 -71.96083,-48.00612 -84.94333,-94.24092 -5.14019,-18.30585 -6.54523,-29.76518 -6.50316,-53.03891 0.054,-29.88159 3.96779,-49.20866 14.41277,-71.17348 20.24531,-42.57398 54.81679,-70.03034 96.87776,-76.93945 14.32024,-2.3523 39.35155,-1.43897 52.15596,1.90305 24.79478,6.47156 41.8226,16.40812 59.9613,34.9903 6.8458,7.01314 17.3914,21.17892 16.8771,22.67072 -0.1861,0.53982 -4.6134,4.80642 -9.8384,9.48135 l -9.5,8.49987 -1.9964,-2.71618 c -13.2433,-18.01784 -25.3384,-28.60747 -42.0036,-36.77525 -38.92392,-19.07704 -83.50534,-11.29484 -115.01166,20.07662 -16.51862,16.44792 -26.97268,36.52595 -32.69507,62.79404 -3.20834,14.72754 -3.19267,45.47642 0.0308,60.42208 3.87974,17.98858 10.4053,33.27019 20.02591,46.89677 16.71125,23.66975 38.04115,37.79812 65.65005,43.4849 7.84309,1.61549 30.37058,1.62755 38,0.0204 24.69532,-5.20229 44.50627,-17.60978 62.34697,-39.04752 2.5591,-3.07515 5.103,-5.65258 5.653,-5.7276 1.2149,-0.16572 19.5,15.70613 19.5,16.92639 0,1.83114 -9.7258,13.59138 -18.037,21.80998 -17.1893,16.99781 -39.05075,28.59855 -62.98777,33.42433 -7.27212,1.46609 -34.44897,2.74333 -40.4752,1.90223 z m 147.25,-7.00591 C 1074.3375,624.00458 1074,558.9023 1074,479.74585 V 335.82503 l 35.25,0.45028 c 40.0127,0.51113 44.8282,1.15138 58.4234,7.76785 31.5922,15.37517 44.6781,62.45963 27.0856,97.45684 -3.929,7.81612 -11.3765,17.12144 -17.1562,21.43585 -2.5316,1.88972 -4.6007,3.68972 -4.5982,4 0,0.31028 4.39,2.79038 9.75,5.51132 17.7164,8.99358 29.984,24.00792 36.4024,44.55283 2.0854,6.67558 2.3415,9.42365 2.3295,25 -0.016,20.21409 -1.0108,25.14686 -7.9698,39.5 -10.0134,20.65307 -26.9109,34.67405 -49.0167,40.67222 -7.4467,2.02058 -10.801,2.19926 -48.5,2.5835 -22.275,0.22704 -40.8375,0.0749 -41.25,-0.33813 z m 80.0871,-30.89849 c 14.5705,-2.88392 24.4579,-9.2752 31.7232,-20.50619 6.8959,-10.65998 8.8542,-17.48374 8.9004,-31.01291 0.035,-10.14681 -0.2863,-12.38252 -2.728,-19 -6.152,-16.67346 -19.765,-28.85392 -37.3127,-33.38616 C 1147.9465,487.68356 1127.418,486 1111.3548,486 H 1099 v 55.15947 55.15948 l 24.25,-0.67382 c 14.3291,-0.39816 27.2517,-1.26794 31.5871,-2.12603 z m -18.3529,-139.04431 c 10.7979,-1.883 18.052,-5.22737 24.524,-11.3064 10.7209,-10.07003 15.6242,-23.28845 14.7609,-39.79316 -0.4346,-8.30864 -0.9313,-10.31881 -4.1675,-16.86674 -8.1477,-16.48594 -20.7167,-21.40651 -54.8516,-21.4736 L 1099,365 v 45.5 45.5 h 14.369 c 8.3884,0 18.0093,-0.63482 23.1152,-1.52521 z m 110.1825,169.85854 C 1246.3,623.96667 1246,558.94167 1246,479.83333 V 336 h 71 71 v 14.5 14.5 h -58 -58 v 44.5 44.5 h 57.5 57.5 v 14.5 14.5 h -57.5 -57.5 v 56.5 56.5 h 57.5 57.5 v 14.5 14.5 h -69.8333 c -38.4084,0 -70.1334,-0.3 -70.5,-0.66667 z M 1406,480.50675 V 336 h 135 135 v 14.5 14.5 h -26.9963 -26.9962 l -0.2538,129.75 -0.2537,129.75 -12.75,0.27988 -12.75,0.27987 V 495.02988 365 h -82.5 -82.5 v 44.49188 44.49187 l 57.75,0.25813 57.75,0.25812 0.2775,14.25 0.2774,14.25 H 1489.0275 1431 v 56.5 56.5 h 58.0275 58.0274 l -0.2774,14.25 -0.2775,14.25 -70.25,0.25675 -70.25,0.25676 z M 326.39749,573.35674 c -1.15638,-0.25145 -3.5544,-1.95516 -5.32893,-3.78601 -6.05086,-6.2429 -4.66451,-14.79797 3.1723,-19.57613 5.84943,-3.56645 12.51967,-1.94839 16.81078,4.07793 6.84683,9.61548 -2.50759,21.92548 -14.65415,19.28421 z M 361.5,491.28877 c -3.13742,-0.75176 -8.42746,-6.36653 -9.43447,-10.0136 C 349.90883,473.46423 357.26892,464 365.5,464 c 8.58485,0 16.25176,10.57381 13.10813,18.07807 -3.05613,7.29536 -9.84586,10.95083 -17.10813,9.2107 z M 259.89788,436.7368 c -1.86883,-1.24475 -4.24344,-3.98871 -5.2769,-6.09767 -1.59512,-3.25512 -1.70657,-4.41009 -0.73765,-7.64406 1.60376,-5.35288 7.14447,-9.9992 11.90147,-9.98033 4.90572,0.0195 8.1547,1.77175 10.93518,5.89771 2.85392,4.23493 2.92172,9.3132 0.18348,13.74376 -3.95059,6.39219 -10.99662,8.08292 -17.00558,4.08059 z m 187.49759,-49.81789 c -8.83452,-2.56313 -12.57162,-13.47579 -7.22857,-21.108 7.10509,-10.14916 23.17674,-5.8137 24.57938,6.63048 0.42636,3.78258 0.0621,5.24978 -2.12315,8.55191 -1.53511,2.31971 -4.14891,4.61737 -6.25259,5.49635 -4.03077,1.68416 -4.56215,1.70957 -8.97507,0.42926 z M 245.36305,268.75 C 240.66037,263.70469 232.90373,252.46646 226.67297,241.67082 223.55284,236.26477 221,231.67207 221,231.46483 c 0,-0.20725 -1.41406,-2.75912 -3.14235,-5.67082 -4.23976,-7.14287 -27.39447,-53.49143 -33.86837,-67.79401 -2.86294,-6.325 -6.32576,-13.975 -7.69515,-17 -1.3694,-3.025 -3.12079,-6.91801 -3.89197,-8.65113 C 171.61734,130.58511 171,126.00088 171,121.93673 c 0,-8.86821 2.57981,-13.97718 10.03267,-19.86832 9.72717,-7.688888 23.66826,-9.766463 35.47324,-5.286406 6.2643,2.377339 12.55593,7.469806 14.87968,12.043666 2.37932,4.68322 10.50344,33.41778 14.1858,50.17433 0.90649,4.125 2.05623,9.3 2.55497,11.5 0.49873,2.2 1.32349,6.25 1.83278,9 0.5093,2.75 1.40454,7.025 1.98942,9.5 1.65007,6.9824 2.84071,12.80136 4.3992,21.5 4.36673,24.37276 5.14795,30.81964 5.15002,42.5 0.002,11.47235 -0.18836,12.76719 -2.31587,15.75 -1.99021,2.7903 -2.91723,3.25 -6.55384,3.25 -3.49072,0 -4.76855,-0.57164 -7.26502,-3.25 z m 69.07677,-1.2684 c -1.8556,-4.85882 -1.77338,-7.13817 0.99132,-27.4816 2.03668,-14.98655 4.40908,-28.50621 5.47338,-31.19142 0.50326,-1.26972 1.44022,-5.68358 2.08213,-9.80858 1.45345,-9.34013 3.68411,-19.38416 10.66023,-48 6.90024,-28.30462 10.36767,-38.96796 14.27594,-43.90255 7.18925,-9.077171 21.13871,-14.3496 32.7177,-12.366203 8.16073,1.397873 14.21832,4.36289 19.30435,9.448923 L 404,108.23529 v 9.89593 c 0,5.44275 -0.44376,10.67731 -0.98614,11.63235 -0.54237,0.95504 -4.98546,10.51143 -9.87353,21.23643 -26.09469,57.25487 -49.83205,100.45643 -63.59954,115.75 -4.31694,4.79545 -5.10056,5.25 -9.05075,5.25 -4.20682,0 -4.37163,-0.12308 -6.05022,-4.5184 z M 281.29129,265.75 c -1.13154,-1.2375 -2.73272,-3.6 -3.55819,-5.25 -2.83217,-5.66118 -7.54209,-22.00789 -9.65224,-33.5 -1.16137,-6.325 -2.57195,-13.54266 -3.13462,-16.03925 -0.56267,-2.49659 -1.42698,-7.67159 -1.9207,-11.5 C 262.53183,195.63234 261.451,188 260.62371,182.5 c -3.57044,-23.73683 -4.6663,-32.36735 -7.08582,-55.80489 -1.40837,-13.64269 -2.84695,-30.128935 -3.19684,-36.636106 -0.62661,-11.653682 -0.59142,-11.926818 2.34499,-18.201782 3.19428,-6.826011 7.01558,-11.215896 13.65654,-15.688514 C 273.51974,51.334958 278.59025,50 289.77291,50 c 13.8577,0 20.89663,2.71551 28.59621,11.031974 7.42329,8.018047 8.1137,11.24031 6.66809,31.121376 -1.52712,21.00215 -3.62387,40.89311 -6.6248,62.84665 -1.39087,10.175 -2.96004,21.875 -3.48705,26 -0.527,4.125 -1.38115,9.525 -1.89809,12 -0.51695,2.475 -1.46301,7.875 -2.10234,12 -3.1749,20.48439 -9.37793,44.06012 -13.96196,53.06493 -4.68967,9.21232 -11.30773,12.45768 -15.67168,7.68507 z"
     id="path4223"
     inkscape:connector-curvature="0" />
</svg>
