<?xml version="1.0" encoding="UTF-8" standalone="no"?>
<!-- Created with Inkscape (http://www.inkscape.org/) -->

<svg
   xmlns:osb="http://www.openswatchbook.org/uri/2009/osb"
   xmlns:dc="http://purl.org/dc/elements/1.1/"
   xmlns:cc="http://creativecommons.org/ns#"
   xmlns:rdf="http://www.w3.org/1999/02/22-rdf-syntax-ns#"
   xmlns:svg="http://www.w3.org/2000/svg"
   xmlns="http://www.w3.org/2000/svg"
   xmlns:sodipodi="http://sodipodi.sourceforge.net/DTD/sodipodi-0.dtd"
   xmlns:inkscape="http://www.inkscape.org/namespaces/inkscape"
   width="720"
   height="720"
   viewBox="0 0 190.50001 190.50001"
   version="1.1"
   id="svg8"
   inkscape:version="0.92.3 (5aff6ba, 2018-11-25)"
   sodipodi:docname="tecbeet_720x720.svg">
  <defs
     id="defs2">
    <linearGradient
       id="linearGradient6405"
       osb:paint="solid">
      <stop
         style="stop-color:#ad1457;stop-opacity:1;"
         offset="0"
         id="stop6403" />
    </linearGradient>
    <linearGradient
       inkscape:collect="always"
       id="linearGradient4937"
       osb:paint="gradient">
      <stop
         style="stop-color:#ad1457;stop-opacity:1;"
         offset="0"
         id="stop4933" />
      <stop
         style="stop-color:#ad1457;stop-opacity:0;"
         offset="1"
         id="stop4935" />
    </linearGradient>
    <clipPath
       clipPathUnits="userSpaceOnUse"
       id="clipPath277">
      <rect
         style="opacity:0.47400046;fill:#ff5555;stroke-width:0.93549687"
         id="rect279"
         width="1011.4285"
         height="352.85715"
         x="531.32812"
         y="898.09961" />
    </clipPath>
    <clipPath
       clipPathUnits="userSpaceOnUse"
       id="clipPath283">
      <rect
         style="opacity:0.47400046;fill:#ff5555;stroke-width:0.26458332"
         id="rect285"
         width="138.91164"
         height="157.41217"
         x="29.399649"
         y="24.385082" />
    </clipPath>
    <clipPath
       clipPathUnits="userSpaceOnUse"
       id="clipPath372">
      <rect
         style="opacity:0.47400046;fill:#ff0000;stroke-width:0.99999994"
         id="rect374"
         width="412.14224"
         height="523.25909"
         x="143.44165"
         y="134.5905"
         ry="0" />
    </clipPath>
  </defs>
  <sodipodi:namedview
     id="base"
     pagecolor="#ffffff"
     bordercolor="#666666"
     borderopacity="1.0"
     inkscape:pageopacity="0.0"
     inkscape:pageshadow="2"
     inkscape:zoom="0.65975396"
     inkscape:cx="459.49946"
     inkscape:cy="476.49175"
     inkscape:document-units="mm"
     inkscape:current-layer="layer1"
     showgrid="false"
     inkscape:window-width="1440"
     inkscape:window-height="872"
     inkscape:window-x="1366"
     inkscape:window-y="0"
     inkscape:window-maximized="1"
     units="px" />
  <metadata
     id="metadata5">
    <rdf:RDF>
      <cc:Work
         rdf:about="">
        <dc:format>image/svg+xml</dc:format>
        <dc:type
           rdf:resource="http://purl.org/dc/dcmitype/StillImage" />
        <dc:title></dc:title>
      </cc:Work>
    </rdf:RDF>
  </metadata>
  <g
     inkscape:label="Camada 1"
     inkscape:groupmode="layer"
     id="layer1"
     transform="translate(0,-106.49996)">
    <path
       id="path4223"
       style="fill:#ad1457;fill-opacity:1;stroke-width:0.22052245"
       d="m 96.601924,112.38245 c -2.542451,0 -3.695571,0.28537 -5.327355,1.31926 -1.50986,0.95668 -2.37843,1.89592 -3.104656,3.35595 -0.667617,1.34219 -0.675884,1.40029 -0.533428,3.89294 0.07951,1.39183 0.406569,4.91831 0.726778,7.83641 0.55009,5.01314 0.79962,6.85919 1.611388,11.93634 0.188088,1.17642 0.433349,2.80902 0.545613,3.62789 0.112263,0.81888 0.309086,1.92577 0.437009,2.45977 0.127922,0.534 0.44841,2.07758 0.712462,3.43044 0.479751,2.4581 1.550709,5.95443 2.194611,7.16533 0.187678,0.35289 0.551622,0.85821 0.808879,1.1229 0.992176,1.02083 2.49716,0.32708 3.563395,-1.64337 1.042201,-1.9261 2.45223,-6.96895 3.17405,-11.35043 0.14536,-0.8823 0.36028,-2.03734 0.47782,-2.56673 0.11753,-0.52937 0.3119,-1.68441 0.43172,-2.56671 0.11981,-0.88228 0.47675,-3.38495 0.79297,-5.56132 0.68229,-4.69572 1.1588,-8.95019 1.506,-13.44243 0.32866,-4.25242 0.17169,-4.94153 -1.51606,-6.65653 -1.75055,-1.77885 -3.350547,-2.35971 -6.501196,-2.35971 z m 19.650846,9.47978 c -2.39299,-0.0418 -4.99999,1.03391 -6.43022,2.73277 -0.88857,1.05547 -1.67673,3.33619 -3.24554,9.39037 -1.58606,6.12075 -2.09353,8.2691 -2.42398,10.26689 -0.14593,0.88232 -0.35916,1.8268 -0.47358,2.09841 -0.24199,0.57434 -0.78125,3.46593 -1.24431,6.67144 -0.62857,4.35133 -0.647,4.8387 -0.22512,5.87798 0.38164,0.94009 0.41923,0.96643 1.37568,0.96643 0.8981,0 1.07593,-0.0972 2.05741,-1.1229 3.13014,-3.27118 8.52682,-12.51179 14.45964,-24.75825 1.11135,-2.29401 2.12161,-4.3379 2.24492,-4.54219 0.12335,-0.20427 0.2246,-1.32378 0.2246,-2.48795 v -2.11649 l -0.92224,-0.86746 c -1.15634,-1.08787 -2.53383,-1.72224 -4.3892,-2.02124 -0.32908,-0.0528 -0.66619,-0.0819 -1.00806,-0.0878 z m -39.056436,0.0287 c -0.133459,-0.003 -0.267115,-0.002 -0.400464,5.4e-4 -1.778226,0.0409 -3.534606,0.60006 -4.916817,1.62795 -1.694456,1.26008 -2.280954,2.35262 -2.280954,4.24948 0,0.8693 0.139924,1.84994 0.318358,2.2272 0.175337,0.37069 0.573814,1.20337 0.885154,1.85039 0.311341,0.64703 1.098749,2.28352 1.74965,3.63639 1.471884,3.05925 6.736003,12.97263 7.69994,14.50043 0.392937,0.62279 0.714586,1.16908 0.714586,1.21337 0,0.0444 0.580467,1.02673 1.289856,2.18303 1.416599,2.30912 3.180176,4.71259 4.249381,5.79176 0.567585,0.57288 0.858007,0.69501 1.65164,0.69501 0.826806,0 1.037595,-0.0982 1.490097,-0.69501 0.483668,-0.63801 0.526995,-0.91486 0.526528,-3.36873 -5.4e-4,-2.49835 -0.178394,-3.87761 -1.1712,-9.09076 -0.354332,-1.8606 -0.624944,-3.10511 -1.000104,-4.59859 -0.132961,-0.5294 -0.336581,-1.44368 -0.452374,-2.0319 -0.115772,-0.58819 -0.30296,-1.45433 -0.416357,-1.92489 -0.113434,-0.47057 -0.375008,-1.57744 -0.581093,-2.45975 -0.837215,-3.58413 -2.684475,-9.73033 -3.225432,-10.73203 -0.528316,-0.97832 -1.958518,-2.06781 -3.382762,-2.57629 -0.880666,-0.31444 -1.813404,-0.47804 -2.747633,-0.4976 z m 34.388066,39.26131 c -1.6191,-0.009 -3.08288,0.0965 -4.24514,0.3241 -0.93784,0.1836 -2.47246,0.43184 -3.4103,0.55134 -0.93785,0.11948 -2.63209,0.35581 -3.76471,0.52526 -3.060158,0.45784 -6.29731,0.38085 -9.990425,-0.23736 -1.750654,-0.29302 -3.899527,-0.65095 -4.774854,-0.79562 -2.06705,-0.34145 -10.655298,-0.33647 -12.618343,0.006 -5.401367,0.94635 -7.354832,1.52548 -11.594932,3.43791 -6.554582,2.95636 -12.239032,8.46314 -15.490463,15.00704 -1.13866,2.29171 -2.413453,6.29047 -3.068637,9.62562 -0.566333,2.88311 -0.571667,9.97405 -0.0096,12.94058 0.768822,4.0576 1.75897,6.93996 3.893406,11.33604 3.565234,7.34289 10.72986,14.47912 17.858285,17.7877 3.273455,1.51934 5.836454,2.20247 9.548641,2.54438 5.804626,0.53459 6.928847,0.78167 9.890311,2.17449 4.68184,2.2019 8.639534,6.58586 10.82314,11.98903 v 5.3e-4 c 0.339655,0.84053 0.891886,0.47617 1.468897,-0.96963 1.145227,-2.86951 3.981084,-6.39334 6.794674,-8.44254 1.92499,-1.40201 5.78132,-3.373 6.5992,-3.373 0.20687,0 0.59983,-0.11543 0.87297,-0.25597 0.71111,-0.36607 3.48937,-0.79759 6.52132,-1.01329 4.30604,-0.30633 7.62753,-1.36022 11.9011,-3.77637 4.20097,-2.37509 9.40083,-7.29774 11.9403,-11.30356 1.55695,-2.45601 2.15864,-2.25967 -6.91014,-2.25967 -6.57991,0 -7.98841,0.0539 -8.69686,0.33207 -0.48329,0.18977 -2.01936,1.42344 -3.58721,2.88126 -1.6327,1.51816 -3.10431,2.69491 -3.63756,2.90838 -0.61495,0.24619 -1.7151,0.38065 -3.51042,0.42893 -1.43803,0.0388 -2.67907,0.073 -2.75771,0.0751 -0.0786,0.003 -0.27017,0.29454 -0.42588,0.64821 -0.68305,1.55135 -3.62475,3.42087 -5.38298,3.42087 -0.4534,0 -1.45565,-0.28034 -2.2269,-0.62319 -3.27159,-1.45419 -4.672339,-4.7059 -3.30544,-7.67301 0.92328,-2.00414 3.31464,-3.47083 5.6542,-3.46878 1.48084,0.002 3.71867,1.07777 4.51316,2.17078 1.20353,1.65577 1.25063,1.68011 3.23496,1.68011 0.99224,0 2.08888,-0.10221 2.43723,-0.22671 0.34835,-0.12461 1.86423,-1.36992 3.36844,-2.7679 1.73152,-1.60921 3.11008,-2.70191 3.75781,-2.97755 0.9778,-0.41611 1.45852,-0.43498 10.85121,-0.44013 l 9.82781,-0.004 0.35279,-0.5061 c 0.74318,-1.06704 2.50206,-6.41623 2.2407,-6.81407 -0.0599,-0.0914 -6.13193,-0.16605 -13.49344,-0.16605 h -13.38427 l -0.98262,1.20326 c -1.40316,1.71889 -2.58277,2.29306 -4.74889,2.3113 -2.54165,0.0214 -4.21256,-0.88253 -5.42005,-2.93289 -0.69389,-1.1783 -0.67535,-3.82564 0.0354,-5.08181 1.38034,-2.43923 4.72989,-3.60862 7.407,-2.58641 1.35511,0.51742 2.4574,1.39017 2.98548,2.36396 0.24447,0.45082 0.61053,0.87928 0.81364,0.9526 0.20313,0.0733 6.48712,0.13359 13.96435,0.13359 11.41766,0 13.63775,-0.0481 13.86105,-0.30123 0.17355,-0.19672 0.28198,-1.47813 0.31202,-3.68963 l 0.0461,-3.38841 -11.30676,-0.0554 -11.30677,-0.0558 -1.08433,-0.55613 c -0.59632,-0.30587 -2.26044,-1.64774 -3.69847,-2.98182 -1.43803,-1.33411 -2.90255,-2.52621 -3.25458,-2.64975 -0.352,-0.12349 -1.95673,-0.22511 -3.56603,-0.22511 -1.60933,0 -3.21403,0.10156 -3.56605,0.22511 -0.35201,0.12354 -1.81706,1.31512 -3.25508,2.64815 -1.43804,1.33302 -3.08402,2.67534 -3.65769,2.98342 -0.94511,0.50752 -1.26965,0.56038 -3.458007,0.56038 -2.187684,0 -2.458811,0.0442 -2.87635,0.46567 -0.253528,0.25603 -0.515311,0.6261 -0.581618,0.82276 -0.0663,0.19667 -0.527451,0.6652 -1.024473,1.04095 -2.555092,1.93174 -6.534011,1.70916 -8.577147,-0.48003 -1.231202,-1.31924 -1.511581,-2.01377 -1.520808,-3.77425 -0.01054,-1.90175 0.453535,-2.90252 1.924979,-4.15317 1.284796,-1.09199 2.3257,-1.4732 4.083571,-1.49596 1.185547,-0.0153 1.734632,0.0992 2.775712,0.58009 1.137767,0.52561 2.680885,1.91254 2.680885,2.40919 0,0.0915 0.169145,0.34206 0.376094,0.55718 0.279234,0.29023 0.705003,0.39117 1.650073,0.39117 2.199789,0 2.618559,-0.22219 5.575259,-2.96374 3.90804,-3.62361 3.7381,-3.55977 9.45065,-3.55977 h 4.66042 l 1.18922,0.64181 c 0.65385,0.35291 2.35444,1.72779 3.77953,3.05526 1.72621,1.60797 2.84666,2.48233 3.3568,2.61995 1.05527,0.28447 20.72367,0.27603 21.00002,-0.007 -0.001,-0.017 -0.002,-0.0341 -0.003,-0.051 -0.0117,-0.18923 -0.0211,-0.37859 -0.0323,-0.56784 -0.18881,-1.36627 -0.90611,-4.6835 -1.29039,-5.78802 l -0.26325,-0.75783 -3.54382,-0.0592 -3.54377,-0.0586 -0.6595,0.98187 c -2.67022,3.97425 -9.25345,3.16304 -10.6865,-1.3166 -0.43629,-1.36387 -0.40504,-2.20986 0.13139,-3.55873 0.81193,-2.0416 2.71648,-3.34778 5.14988,-3.53156 2.16031,-0.16314 4.24691,0.79115 5.32841,2.4374 0.72815,1.10842 0.67534,1.28457 6.08272,1.25062 -0.0208,-0.0535 -0.0415,-0.10682 -0.0626,-0.16016 -0.0304,-0.0771 -0.0605,-0.15405 -0.0911,-0.23098 -0.0307,-0.0768 -0.0617,-0.15348 -0.0932,-0.2299 -0.0315,-0.0769 -0.0634,-0.15376 -0.0959,-0.23043 -0.0319,-0.0768 -0.0643,-0.15345 -0.0969,-0.22991 -0.0327,-0.0764 -0.0652,-0.15231 -0.0985,-0.22832 -0.0324,-0.0737 -0.0651,-0.14761 -0.0991,-0.22084 -0.0326,-0.0707 -0.0656,-0.14122 -0.0998,-0.21129 -0.032,-0.0658 -0.0644,-0.13141 -0.098,-0.19637 -0.0334,-0.0644 -0.0674,-0.12879 -0.10178,-0.19266 -0.0326,-0.061 -0.0656,-0.12175 -0.0996,-0.182 -0.034,-0.0601 -0.0682,-0.12021 -0.10274,-0.17987 -0.0337,-0.0587 -0.0673,-0.11732 -0.10178,-0.17562 -0.0336,-0.0565 -0.0674,-0.11274 -0.10178,-0.16872 -0.0325,-0.0532 -0.0651,-0.1066 -0.0991,-0.1591 -0.0337,-0.0525 -0.0677,-0.10495 -0.1022,-0.157 -0.0342,-0.0522 -0.0685,-0.10367 -0.10324,-0.1554 -0.0344,-0.0513 -0.0693,-0.10335 -0.1043,-0.15434 -0.0341,-0.0496 -0.0681,-0.0992 -0.10272,-0.14849 -0.0341,-0.0487 -0.0685,-0.0975 -0.10272,-0.14633 -0.0329,-0.047 -0.0664,-0.0941 -0.0995,-0.14103 -0.0334,-0.047 -0.0668,-0.0937 -0.10015,-0.14104 -0.0321,-0.0455 -0.0643,-0.0917 -0.0965,-0.1373 -0.0313,-0.0446 -0.0628,-0.0891 -0.0941,-0.13357 -0.031,-0.0442 -0.0624,-0.0877 -0.0932,-0.13198 -0.0299,-0.0427 -0.0596,-0.0857 -0.0895,-0.12826 -0.0296,-0.0423 -0.0589,-0.0851 -0.0884,-0.12719 -0.0286,-0.041 -0.0572,-0.0816 -0.0859,-0.12242 -0.028,-0.0402 -0.0559,-0.0797 -0.0843,-0.11973 -0.0277,-0.0393 -0.0554,-0.0788 -0.0832,-0.11814 -0.027,-0.0383 -0.0541,-0.0761 -0.081,-0.11448 -0.0269,-0.0377 -0.0537,-0.0755 -0.0805,-0.11331 -0.0255,-0.0358 -0.051,-0.0718 -0.0769,-0.10749 -0.0256,-0.0355 -0.0511,-0.0709 -0.0768,-0.10639 -0.0238,-0.0329 -0.0476,-0.0659 -0.0716,-0.099 -0.0238,-0.0323 -0.0473,-0.0645 -0.0711,-0.0969 -0.0221,-0.0304 -0.045,-0.0608 -0.0672,-0.0911 -0.0211,-0.0287 -0.0422,-0.0577 -0.0634,-0.0862 -0.0208,-0.0277 -0.0417,-0.0554 -0.0626,-0.0831 -0.0201,-0.0265 -0.0402,-0.0529 -0.0604,-0.0793 -0.0184,-0.0242 -0.0371,-0.0479 -0.0556,-0.0719 -0.0182,-0.0232 -0.0369,-0.0464 -0.0553,-0.0697 -0.0182,-0.0231 -0.0362,-0.0463 -0.0545,-0.0693 -0.0148,-0.0188 -0.03,-0.0376 -0.045,-0.0565 -0.0154,-0.0189 -0.0304,-0.0376 -0.0454,-0.0564 -0.0139,-0.017 -0.0279,-0.0346 -0.0419,-0.0515 -0.011,-0.0127 -0.021,-0.0253 -0.0318,-0.0378 -0.0128,-0.0148 -0.025,-0.0298 -0.0377,-0.0447 -0.009,-0.0117 -0.0193,-0.022 -0.029,-0.0328 -0.0117,-0.0128 -0.0227,-0.0255 -0.034,-0.0384 -0.007,-0.009 -0.0173,-0.019 -0.0261,-0.0282 -0.004,-0.004 -0.0123,-0.0127 -0.018,-0.0186 l -0.0207,-0.0208 c -0.0109,-0.0109 -0.021,-0.0205 -0.0311,-0.0308 l -0.016,-0.0161 c -5.2e-4,-5.5e-4 -0.0188,-0.0176 -0.0109,-0.009 -0.0154,-0.0144 -0.0279,-0.0272 -0.0392,-0.0393 0.007,0.007 -0.007,-0.007 -0.0109,-0.0117 -0.0165,-0.0178 -0.0324,-0.0359 -0.0471,-0.0554 -0.029,-0.0393 0.0225,0.0299 -0.004,-0.004 -0.0742,-0.1146 -0.13146,-0.19798 -0.18752,-0.29005 l -1.95253,-1.83657 c -2.55777,-2.3985 -6.44707,-5.2006 -7.81754,-5.63209 -0.23807,-0.075 -0.94482,-0.36052 -1.57007,-0.63436 -2.91386,-1.27633 -5.69076,-2.23813 -6.45246,-2.23411 -0.20253,0.001 -1.03325,-0.14078 -1.84607,-0.31506 -2.88551,-0.61868 -6.01526,-0.95238 -8.7138,-0.96751 z m 21.60444,17.57269 c -0.89577,0.0146 -1.78805,0.39294 -2.39381,1.20699 -1.21477,1.63251 -0.36538,3.96681 1.64319,4.51504 1.00329,0.27381 1.12404,0.26873 2.04046,-0.0915 0.47829,-0.18799 1.07273,-0.67943 1.42175,-1.17558 0.49677,-0.70632 0.57955,-1.02059 0.48257,-1.82965 -0.19932,-1.66358 -1.70125,-2.64963 -3.19416,-2.62527 z m -42.040871,11.30415 c -1.081542,-0.004 -2.34116,0.98964 -2.705783,2.1346 -0.220281,0.69172 -0.195267,0.9386 0.167389,1.63486 0.234969,0.45109 0.774911,1.03814 1.199805,1.30439 1.366174,0.85607 2.968196,0.49446 3.866385,-0.8728 0.62256,-0.94766 0.607019,-2.03396 -0.04186,-2.93976 -0.632171,-0.88253 -1.370607,-1.25717 -2.485968,-1.26129 z m 22.670751,10.90497 c -1.87138,0 -3.54466,2.02477 -3.05432,3.69549 0.22896,0.78009 1.4315,1.98071 2.14482,2.1415 1.65111,0.3722 3.19486,-0.40974 3.88969,-1.97014 0.71472,-1.60512 -1.02834,-3.86685 -2.98019,-3.86685 z m -7.844,17.99472 c -0.51283,-0.017 -1.038,0.11309 -1.53671,0.39915 -1.78175,1.02201 -2.09667,2.8519 -0.72095,4.18722 0.40345,0.3916 0.94855,0.75623 1.21146,0.80999 2.76161,0.56494 4.8886,-2.06828 3.33192,-4.12497 -0.60976,-0.80561 -1.43101,-1.24295 -2.28572,-1.27139 z"
       inkscape:connector-curvature="0" />
    <path
       id="path4223-3"
       style="fill:#212529;fill-opacity:1;stroke-width:0.81120551"
       d="m 903.72656,922.66211 c -6.01304,0.006 -11.77759,0.3388 -16.27929,1.03125 -35.25941,5.42362 -64.24163,26.9762 -81.21289,60.39648 -8.75596,17.24226 -12.03668,32.41426 -12.08204,55.87106 -0.0353,18.2698 1.14416,27.2648 5.45313,41.6348 10.88315,36.294 37.48669,63.9333 71.20703,73.9785 6.92663,2.0635 11.14099,2.8729 23.05273,4.4297 5.05176,0.6603 27.8335,-0.3413 33.92969,-1.4922 20.06623,-3.7882 38.39302,-12.8951 52.80274,-26.2383 6.96718,-6.4515 15.12109,-15.6836 15.12109,-17.1211 0,-0.9579 -15.32922,-13.4175 -16.34766,-13.2871 -0.46106,0.059 -2.59298,2.0821 -4.73828,4.4961 -14.95574,16.8285 -31.56371,26.5686 -52.26562,30.6524 -6.39568,1.2625 -25.28068,1.2588 -31.85547,-0.016 -23.14435,-4.464 -41.02427,-15.5541 -55.0332,-34.1347 -8.06491,-10.6968 -13.53475,-22.6936 -16.78711,-36.8145 -2.70286,-11.7322 -2.71585,-35.8705 -0.0274,-47.4316 4.79705,-20.62046 13.56077,-36.38147 27.40821,-49.29298 26.41149,-24.62638 63.78445,-30.73516 96.41406,-15.75977 13.97034,6.41163 24.10918,14.72524 35.21094,28.86914 l 1.67382,2.13282 7.96289,-6.67383 c 4.3801,-3.66977 8.09233,-7.01765 8.24805,-7.44141 0.43117,-1.17105 -8.40964,-12.29158 -14.14844,-17.79687 -15.20553,-14.5869 -29.47838,-22.38666 -50.26367,-27.4668 -6.70864,-1.63965 -17.42162,-2.53557 -27.44336,-2.52539 z m -386.3789,5.10742 c 0.0274,0.0128 0.0549,0.0269 0.084,0.0352 0.0611,0.0181 0.11396,0.0224 0.13281,0.0254 -0.072,-0.0211 -0.14469,-0.04 -0.21679,-0.0605 z m 0.2207,0.0625 c 0.0145,0.003 -0.009,0.002 -0.10547,0.01 -0.0378,0.002 -0.0715,0.004 -0.10742,0.008 -0.13342,0.002 -0.26679,-0.004 -0.40039,-0.004 -0.0163,1.9e-4 -0.0325,-1.7e-4 -0.0488,0 -0.0366,0.58103 -0.0768,1.17447 -0.14258,1.97852 0.0389,1.28311 0.0398,2.56608 0.0234,3.84961 -1.9e-4,1.29483 0.004,2.58994 0.004,3.88476 -10e-4,1.41449 -1.9e-4,2.8277 0,4.24219 7e-5,1.42976 0,2.85934 0,4.28906 3e-5,1.42882 0,2.8583 0,4.28711 v 0.0606 c 3.64348,1.12122 12.28773,0.89246 38.36523,0.60742 l 38.17969,-0.41601 v 102.18951 102.1894 l 10.68945,-0.2207 10.6875,-0.2187 0.21289,-101.8536 0.21289,-101.85349 h 27.24024 27.24218 v 102.05079 102.0488 h 59.09961 59.09961 v -11.3828 -11.3828 H 739.61922 691.4161 v -44.3515 -44.3516 h 48.20312 48.20117 v -11.3828 -11.3828 H 739.61922 691.4161 v -34.9317 -34.93359 h 48.62109 48.62109 V 939.48242 928.09961 H 655.4043 522.14844 l -0.13867,-0.12891 c -0.13418,-3.5e-4 -0.2686,-0.003 -0.40235,-0.002 -0.12321,10e-4 -0.24555,1.1e-4 -0.36914,0 -0.15231,8e-5 -0.30479,4e-5 -0.45703,0 h -0.36133 -0.38086 -0.3789 c -0.0874,-0.0237 -0.1744,-0.0486 -0.26172,-0.0723 -0.13386,0.009 -0.26818,0.01 -0.40235,0.01 -0.11716,0.002 -0.23439,0.002 -0.35156,0.002 -0.15572,-7e-5 -0.31108,0 -0.4668,0 -0.082,-0.0189 -0.26249,0.0227 -0.34375,0 -0.0885,-0.0228 -0.17586,-0.0505 -0.26367,-0.0762 0,0 -0.002,0 -0.002,0 z m 499.10744,0.13086 v 112.97661 c 0,62.1372 0.2811,113.2421 0.6269,113.5664 0.3459,0.3242 15.9072,0.444 34.5801,0.2656 31.6028,-0.3016 34.4157,-0.4432 40.6582,-2.0293 18.5312,-4.7085 32.6957,-15.7152 41.0899,-31.9277 5.8337,-11.2672 6.6703,-15.138 6.6816,-31.0059 0.01,-12.2273 -0.2049,-14.3847 -1.9531,-19.625 -5.3805,-16.1276 -15.6662,-27.9147 -30.5156,-34.9746 -4.4933,-2.1359 -8.1739,-4.0828 -8.1739,-4.3262 0,-0.2435 1.7313,-1.6572 3.8535,-3.1406 4.8451,-3.3868 11.0913,-10.6906 14.3828,-16.8262 14.7477,-27.47216 3.7785,-64.4345 -22.705,-76.50389 -11.3968,-5.1939 -15.4342,-5.69642 -48.9766,-6.09766 z m 144.1855,0.13672 v 112.90819 c 0,62.0996 0.2513,113.144 0.5586,113.4317 0.3073,0.2878 26.9021,0.5234 59.0996,0.5234 h 58.541 v -11.3828 -11.3828 h -48.2011 -48.2032 v -44.3516 -44.3516 h 48.2032 48.2011 v -11.3828 -11.3828 h -48.2011 -48.2032 v -34.93162 -34.9336 h 48.6211 48.6211 v -11.38086 -11.38281 h -59.5175 z m 134.127,0 v 113.43749 113.4356 l 58.8906,-0.2012 58.8887,-0.2012 0.2324,-11.1875 0.2324,-11.1855 h -48.6426 -48.6445 v -44.3516 -44.3516 h 48.6445 48.6426 l -0.2324,-11.1875 -0.2324,-11.1855 -48.4102,-0.2031 -48.4121,-0.2032 v -34.92574 -34.92578 h 69.1602 69.1582 v 102.07422 102.0723 l 10.6875,-0.2207 10.6894,-0.2188 0.2129,-101.8535 0.2129,-101.85352 h 22.6309 22.6308 v -11.38086 -11.38281 h -113.1699 z m -778.24807,2.01953 c -0.0539,0.66157 -0.0973,1.1793 -0.16015,2.02344 -0.003,0.034 0.0236,-0.0672 0.0273,-0.10156 0.034,-0.28498 0.0737,-0.57094 0.0937,-0.85743 0.0257,-0.35431 0.0255,-0.70928 0.0391,-1.06445 z m 520.89257,20.74609 14.8789,0.0254 c 28.615,0.0526 39.1523,3.9161 45.9824,16.85743 2.7129,5.14012 3.1279,6.71805 3.4922,13.24023 0.7237,12.95611 -3.3858,23.33331 -12.373,31.23831 -5.4254,4.772 -11.5068,7.3968 -20.5586,8.875 -4.2803,0.6989 -12.345,1.1972 -19.377,1.1972 h -12.0449 v -35.71676 z m -831.92577,47.29883 c 0.016,0.17212 0.0325,0.3509 0.0508,0.54102 0.0178,0.0769 0.0369,0.15354 0.0547,0.23047 -0.0172,-0.14939 -0.0287,-0.35655 -0.0469,-0.45703 -0.0324,-0.17945 -0.0298,-0.15393 -0.0586,-0.31446 z m 0.48438,2.29884 c -0.005,0.01 0.003,0.078 0.0195,0.1933 0.11688,0.5005 0.22936,1.0019 0.34765,1.502 0.27347,1.1561 -0.32794,-1.7366 -0.36718,-1.6953 z m 831.44139,45.3809 h 10.3555 c 13.4656,0 30.6745,1.3226 36.9394,2.8378 14.7101,3.5578 26.1222,13.1185 31.2793,26.2071 2.0469,5.1947 2.3174,6.9508 2.2871,14.916 -0.039,10.6203 -1.6801,15.9757 -7.4609,24.3437 -6.0904,8.8163 -14.3794,13.8338 -26.5937,16.0977 -3.6344,0.6736 -14.4666,1.3574 -26.4786,1.6699 l -20.3281,0.5274 v -43.2989 z m -627.4453,12.8828 c -1.0712,0.1316 -2.14216,0.2622 -3.21484,0.3808 0.0801,0.2371 -1.28837,0.6435 3.21484,-0.3808 z m 89.42969,8.8183 c -0.21665,0.075 -0.38331,0.1752 -0.52539,0.2891 0.20432,0.1311 0.42064,0.2649 0.62695,0.3965 0.0335,-0.1101 0.0614,-0.2065 0.0957,-0.3184 -0.0663,-0.1228 -0.13089,-0.2443 -0.19726,-0.3672 z"
       clip-path="url(#clipPath277)"
       inkscape:connector-curvature="0"
       transform="matrix(0.17433762,0,0,0.17515005,-83.156439,89.107805)" />
  </g>
</svg>
