<?xml version="1.0" encoding="UTF-8"?>
<svg xmlns="http://www.w3.org/2000/svg" xmlns:xlink="http://www.w3.org/1999/xlink" width="124pt" height="54pt" viewBox="0 0 124 54" version="1.1">
<g id="surface1">
<path style=" stroke:none;fill-rule:nonzero;fill:rgb(0%,0%,0%);fill-opacity:1;" d="M 20.195312 49.574219 C 19.503906 47.746094 18.253906 46.265625 16.773438 45.523438 C 15.839844 45.050781 15.484375 44.96875 13.648438 44.789062 C 12.476562 44.671875 11.667969 44.441406 10.632812 43.925781 C 8.378906 42.808594 6.117188 40.398438 4.988281 37.914062 C 4.316406 36.429688 4.003906 35.457031 3.757812 34.085938 C 3.582031 33.082031 3.582031 30.683594 3.761719 29.710938 C 3.96875 28.582031 4.371094 27.230469 4.730469 26.457031 C 5.757812 24.246094 7.554688 22.386719 9.625 21.386719 C 10.964844 20.738281 11.585938 20.542969 13.289062 20.222656 C 13.910156 20.109375 16.625 20.105469 17.277344 20.222656 C 17.554688 20.269531 18.234375 20.390625 18.785156 20.492188 C 19.953125 20.699219 20.976562 20.726562 21.945312 20.570312 C 22.300781 20.511719 22.835938 20.433594 23.132812 20.394531 C 23.429688 20.351562 23.914062 20.269531 24.210938 20.207031 C 25.191406 20 26.847656 20.089844 28.304688 20.425781 C 28.5625 20.484375 28.824219 20.53125 28.890625 20.53125 C 29.128906 20.53125 30.007812 20.855469 30.929688 21.285156 C 31.125 21.378906 31.347656 21.476562 31.425781 21.5 C 31.855469 21.644531 33.085938 22.59375 33.894531 23.402344 L 34.777344 24.289062 L 57.617188 24.289062 L 57.617188 26.386719 L 49.285156 26.386719 L 49.285156 32.820312 L 57.546875 32.820312 L 57.546875 34.914062 L 49.285156 34.914062 L 49.285156 43.085938 L 57.546875 43.085938 L 57.546875 45.179688 L 47.414062 45.179688 L 47.414062 26.386719 L 42.746094 26.386719 L 42.730469 35.765625 L 42.710938 45.144531 L 41.792969 45.164062 L 40.878906 45.183594 L 40.878906 26.363281 L 37.605469 26.402344 C 34.023438 26.445312 34.28125 26.472656 33.988281 25.996094 C 33.644531 25.441406 32.984375 25.117188 32.304688 25.171875 C 31.535156 25.234375 30.933594 25.675781 30.675781 26.367188 C 30.507812 26.824219 30.496094 27.109375 30.632812 27.570312 C 31.085938 29.085938 33.167969 29.359375 34.011719 28.015625 L 34.21875 27.683594 L 36.460938 27.722656 L 36.542969 27.980469 C 36.691406 28.441406 37.007812 30.070312 36.964844 30.144531 C 36.902344 30.242188 30.660156 30.242188 30.324219 30.148438 C 30.164062 30.101562 29.8125 29.804688 29.265625 29.261719 C 28.816406 28.8125 28.277344 28.347656 28.070312 28.230469 L 27.695312 28.011719 L 26.222656 28.011719 C 24.417969 28.011719 24.472656 27.992188 23.234375 29.214844 C 22.300781 30.140625 22.167969 30.21875 21.472656 30.21875 C 21.175781 30.21875 21.042969 30.183594 20.953125 30.085938 C 20.886719 30.011719 20.835938 29.925781 20.835938 29.894531 C 20.835938 29.726562 20.347656 29.261719 19.988281 29.082031 C 19.65625 28.917969 19.484375 28.878906 19.109375 28.886719 C 18.554688 28.894531 18.226562 29.023438 17.820312 29.390625 C 17.355469 29.8125 17.207031 30.152344 17.210938 30.796875 C 17.214844 31.390625 17.304688 31.625 17.691406 32.070312 C 18.335938 32.8125 19.59375 32.886719 20.402344 32.234375 C 20.558594 32.105469 20.703125 31.949219 20.726562 31.882812 C 20.746094 31.816406 20.828125 31.691406 20.910156 31.601562 C 21.042969 31.460938 21.128906 31.445312 21.820312 31.445312 C 22.511719 31.445312 22.613281 31.429688 22.910156 31.257812 C 23.09375 31.152344 23.613281 30.699219 24.066406 30.25 C 24.523438 29.796875 24.984375 29.394531 25.09375 29.351562 C 25.207031 29.3125 25.714844 29.277344 26.222656 29.277344 C 26.730469 29.277344 27.238281 29.3125 27.347656 29.351562 C 27.460938 29.394531 27.921875 29.796875 28.378906 30.25 C 28.832031 30.699219 29.359375 31.152344 29.546875 31.257812 L 29.890625 31.445312 L 33.460938 31.464844 L 37.035156 31.480469 L 37.019531 32.628906 C 37.011719 33.375 36.976562 33.808594 36.921875 33.875 C 36.851562 33.960938 36.148438 33.976562 32.542969 33.976562 C 30.179688 33.976562 28.191406 33.957031 28.128906 33.929688 C 28.066406 33.90625 27.949219 33.761719 27.871094 33.609375 C 27.707031 33.28125 27.355469 32.984375 26.929688 32.808594 C 26.082031 32.464844 25.023438 32.859375 24.589844 33.683594 C 24.363281 34.109375 24.359375 35.003906 24.578125 35.402344 C 24.957031 36.09375 25.488281 36.398438 26.289062 36.394531 C 26.972656 36.386719 27.347656 36.191406 27.789062 35.613281 L 28.101562 35.203125 L 32.328125 35.203125 C 34.65625 35.203125 36.574219 35.230469 36.59375 35.261719 C 36.675781 35.394531 36.121094 37.203125 35.886719 37.5625 L 35.773438 37.734375 L 32.667969 37.738281 C 29.699219 37.738281 29.550781 37.746094 29.238281 37.886719 C 29.035156 37.976562 28.597656 38.347656 28.050781 38.890625 C 27.578125 39.363281 27.097656 39.785156 26.988281 39.828125 C 26.878906 39.871094 26.53125 39.902344 26.21875 39.902344 C 25.589844 39.902344 25.574219 39.894531 25.195312 39.335938 C 24.945312 38.964844 24.238281 38.601562 23.769531 38.601562 C 23.03125 38.601562 22.273438 39.097656 21.984375 39.773438 C 21.550781 40.777344 21.992188 41.875 23.027344 42.367188 C 23.269531 42.484375 23.585938 42.578125 23.730469 42.578125 C 24.285156 42.578125 25.214844 41.945312 25.433594 41.421875 C 25.480469 41.300781 25.542969 41.203125 25.566406 41.203125 C 25.589844 41.203125 25.984375 41.191406 26.4375 41.175781 C 27.003906 41.160156 27.351562 41.117188 27.546875 41.03125 C 27.714844 40.960938 28.179688 40.5625 28.695312 40.050781 C 29.191406 39.558594 29.675781 39.140625 29.832031 39.074219 C 30.054688 38.980469 30.5 38.964844 32.578125 38.964844 C 35.445312 38.964844 35.253906 38.898438 34.761719 39.726562 C 33.960938 41.082031 32.316406 42.746094 30.988281 43.546875 C 29.636719 44.363281 28.589844 44.71875 27.226562 44.824219 C 26.269531 44.898438 25.390625 45.042969 25.167969 45.167969 C 25.082031 45.214844 24.957031 45.253906 24.890625 45.253906 C 24.632812 45.253906 23.414062 45.917969 22.804688 46.394531 C 21.917969 47.085938 21.019531 48.277344 20.660156 49.246094 C 20.476562 49.734375 20.300781 49.859375 20.195312 49.574219 Z M 66.632812 45.644531 C 65.613281 45.5 65.25 45.425781 64.65625 45.238281 C 61.769531 44.3125 59.488281 41.765625 58.554688 38.425781 C 58.1875 37.101562 58.085938 36.273438 58.089844 34.589844 C 58.09375 32.429688 58.375 31.03125 59.125 29.445312 C 60.578125 26.367188 63.0625 24.382812 66.082031 23.882812 C 67.113281 23.714844 68.910156 23.78125 69.832031 24.019531 C 71.613281 24.488281 72.835938 25.207031 74.136719 26.550781 C 74.628906 27.058594 75.386719 28.082031 75.351562 28.1875 C 75.335938 28.226562 75.019531 28.535156 74.644531 28.875 L 73.960938 29.488281 L 73.816406 29.292969 C 72.867188 27.992188 71.996094 27.226562 70.800781 26.632812 C 68.003906 25.253906 64.800781 25.816406 62.539062 28.085938 C 61.351562 29.273438 60.601562 30.726562 60.1875 32.625 C 59.957031 33.691406 59.960938 35.914062 60.191406 36.992188 C 60.46875 38.292969 60.9375 39.398438 61.628906 40.382812 C 62.832031 42.09375 64.363281 43.117188 66.347656 43.527344 C 66.910156 43.644531 68.527344 43.644531 69.078125 43.527344 C 70.851562 43.152344 72.273438 42.253906 73.554688 40.707031 C 73.738281 40.484375 73.921875 40.296875 73.960938 40.292969 C 74.050781 40.277344 75.363281 41.425781 75.363281 41.515625 C 75.363281 41.648438 74.664062 42.496094 74.066406 43.089844 C 72.832031 44.320312 71.261719 45.160156 69.542969 45.507812 C 69.019531 45.613281 67.066406 45.707031 66.632812 45.644531 Z M 77.210938 45.136719 C 77.183594 45.109375 77.160156 40.402344 77.160156 34.679688 L 77.160156 24.277344 L 79.691406 24.308594 C 82.566406 24.347656 82.910156 24.390625 83.886719 24.871094 C 86.15625 25.980469 87.097656 29.386719 85.835938 31.914062 C 85.550781 32.480469 85.015625 33.152344 84.601562 33.464844 C 84.421875 33.601562 84.269531 33.730469 84.269531 33.753906 C 84.269531 33.777344 84.585938 33.957031 84.972656 34.152344 C 86.246094 34.804688 87.125 35.886719 87.585938 37.375 C 87.738281 37.855469 87.753906 38.054688 87.753906 39.179688 C 87.753906 40.640625 87.683594 41 87.183594 42.035156 C 86.460938 43.527344 85.25 44.542969 83.660156 44.976562 C 83.125 45.121094 82.882812 45.136719 80.175781 45.164062 C 78.574219 45.179688 77.242188 45.167969 77.210938 45.136719 Z M 82.964844 42.90625 C 84.011719 42.695312 84.722656 42.234375 85.246094 41.421875 C 85.742188 40.652344 85.882812 40.160156 85.886719 39.179688 C 85.886719 38.445312 85.863281 38.285156 85.6875 37.808594 C 85.246094 36.601562 84.269531 35.722656 83.007812 35.394531 C 82.472656 35.253906 80.996094 35.132812 79.84375 35.132812 L 78.953125 35.132812 L 78.953125 43.105469 L 80.695312 43.058594 C 81.726562 43.03125 82.65625 42.96875 82.964844 42.90625 Z M 81.648438 32.855469 C 82.421875 32.71875 82.945312 32.476562 83.410156 32.035156 C 84.179688 31.308594 84.53125 30.351562 84.46875 29.160156 C 84.4375 28.558594 84.402344 28.414062 84.171875 27.941406 C 83.585938 26.75 82.683594 26.394531 80.230469 26.386719 L 78.953125 26.386719 L 78.953125 32.964844 L 79.988281 32.964844 C 80.589844 32.964844 81.28125 32.917969 81.648438 32.855469 Z M 89.5625 45.132812 C 89.539062 45.105469 89.515625 40.40625 89.515625 34.6875 L 89.515625 24.289062 L 99.71875 24.289062 L 99.71875 26.386719 L 91.382812 26.386719 L 91.382812 32.820312 L 99.644531 32.820312 L 99.644531 34.914062 L 91.382812 34.914062 L 91.382812 43.085938 L 99.644531 43.085938 L 99.644531 45.179688 L 94.628906 45.179688 C 91.867188 45.179688 89.589844 45.160156 89.5625 45.132812 Z M 101.011719 34.734375 L 101.011719 24.289062 L 120.40625 24.289062 L 120.40625 26.386719 L 116.527344 26.386719 L 116.511719 35.765625 L 116.492188 45.144531 L 115.578125 45.164062 L 114.660156 45.183594 L 114.660156 26.386719 L 102.804688 26.386719 L 102.804688 32.816406 L 106.957031 32.835938 L 111.105469 32.855469 L 111.125 33.886719 L 111.144531 34.914062 L 102.804688 34.914062 L 102.804688 43.085938 L 111.144531 43.085938 L 111.125 44.113281 L 111.105469 45.144531 L 101.011719 45.183594 Z M 23.449219 41.449219 C 23.367188 41.429688 23.195312 41.304688 23.066406 41.171875 C 22.632812 40.722656 22.730469 40.105469 23.292969 39.757812 C 23.714844 39.5 24.195312 39.617188 24.503906 40.054688 C 24.992188 40.75 24.320312 41.636719 23.449219 41.449219 Z M 25.972656 35.515625 C 25.746094 35.460938 25.367188 35.054688 25.292969 34.789062 C 25.136719 34.226562 25.667969 33.542969 26.257812 33.542969 C 26.875 33.542969 27.425781 34.304688 27.199219 34.847656 C 26.980469 35.375 26.492188 35.640625 25.972656 35.515625 Z M 18.671875 31.570312 C 18.539062 31.480469 18.367188 31.28125 18.292969 31.128906 C 18.179688 30.894531 18.171875 30.8125 18.238281 30.578125 C 18.355469 30.191406 18.753906 29.855469 19.09375 29.855469 C 19.445312 29.859375 19.679688 29.984375 19.878906 30.28125 C 20.085938 30.589844 20.089844 30.957031 19.894531 31.277344 C 19.609375 31.738281 19.101562 31.859375 18.671875 31.570312 Z M 32.140625 27.96875 C 31.507812 27.785156 31.238281 26.996094 31.621094 26.445312 C 32.132812 25.710938 33.289062 26.023438 33.386719 26.921875 C 33.417969 27.195312 33.394531 27.304688 33.234375 27.542969 C 33.125 27.710938 32.9375 27.875 32.785156 27.9375 C 32.496094 28.0625 32.460938 28.0625 32.140625 27.96875 Z M 17.628906 19.425781 C 17.289062 19.0625 16.730469 18.25 16.285156 17.46875 C 16.0625 17.078125 15.878906 16.746094 15.878906 16.730469 C 15.878906 16.71875 15.777344 16.53125 15.652344 16.324219 C 15.347656 15.804688 13.683594 12.457031 13.21875 11.421875 C 13.011719 10.964844 12.765625 10.410156 12.664062 10.191406 C 12.566406 9.972656 12.441406 9.691406 12.386719 9.566406 C 12.328125 9.441406 12.285156 9.109375 12.285156 8.816406 C 12.285156 8.171875 12.46875 7.804688 13.003906 7.378906 C 13.703125 6.824219 14.707031 6.671875 15.554688 6.996094 C 16.003906 7.167969 16.457031 7.535156 16.625 7.867188 C 16.792969 8.207031 17.378906 10.28125 17.640625 11.492188 C 17.707031 11.792969 17.789062 12.167969 17.824219 12.324219 C 17.863281 12.484375 17.921875 12.777344 17.957031 12.976562 C 17.996094 13.175781 18.058594 13.484375 18.101562 13.664062 C 18.21875 14.167969 18.304688 14.589844 18.417969 15.21875 C 18.730469 16.980469 18.785156 17.445312 18.785156 18.289062 C 18.785156 19.117188 18.773438 19.210938 18.621094 19.425781 C 18.476562 19.628906 18.410156 19.664062 18.148438 19.664062 C 17.898438 19.664062 17.808594 19.621094 17.628906 19.425781 Z M 22.589844 19.335938 C 22.457031 18.984375 22.460938 18.820312 22.660156 17.347656 C 22.808594 16.265625 22.976562 15.289062 23.054688 15.09375 C 23.089844 15.003906 23.15625 14.683594 23.203125 14.386719 C 23.308594 13.710938 23.46875 12.984375 23.96875 10.914062 C 24.464844 8.871094 24.714844 8.097656 24.996094 7.742188 C 25.511719 7.085938 26.515625 6.703125 27.347656 6.847656 C 27.933594 6.949219 28.367188 7.164062 28.734375 7.53125 L 29.023438 7.824219 L 29.023438 8.539062 C 29.023438 8.933594 28.992188 9.3125 28.953125 9.378906 C 28.914062 9.449219 28.59375 10.140625 28.246094 10.914062 C 26.371094 15.054688 24.664062 18.175781 23.675781 19.28125 C 23.363281 19.628906 23.308594 19.664062 23.023438 19.664062 C 22.722656 19.664062 22.710938 19.652344 22.589844 19.335938 Z M 20.207031 19.210938 C 20.128906 19.121094 20.011719 18.949219 19.953125 18.832031 C 19.75 18.421875 19.410156 17.242188 19.257812 16.410156 C 19.175781 15.953125 19.074219 15.429688 19.035156 15.25 C 18.992188 15.070312 18.933594 14.695312 18.894531 14.417969 C 18.859375 14.140625 18.785156 13.589844 18.722656 13.191406 C 18.46875 11.476562 18.386719 10.851562 18.214844 9.160156 C 18.113281 8.171875 18.011719 6.980469 17.984375 6.511719 C 17.941406 5.667969 17.941406 5.648438 18.152344 5.195312 C 18.382812 4.699219 18.65625 4.382812 19.132812 4.058594 C 19.648438 3.710938 20.015625 3.613281 20.816406 3.613281 C 21.8125 3.613281 22.320312 3.8125 22.871094 4.410156 C 23.40625 4.992188 23.457031 5.222656 23.351562 6.660156 C 23.242188 8.179688 23.089844 9.617188 22.875 11.203125 C 22.777344 11.941406 22.664062 12.785156 22.625 13.085938 C 22.585938 13.382812 22.527344 13.773438 22.488281 13.953125 C 22.453125 14.128906 22.382812 14.519531 22.335938 14.820312 C 22.109375 16.300781 21.664062 18.003906 21.335938 18.65625 C 20.996094 19.320312 20.523438 19.554688 20.207031 19.210938 Z M 20.207031 19.210938 "/>
</g>
</svg>
